<?xml version="1.0" encoding="UTF-8"?>
<svg id="Capa_1" data-name="Capa 1" xmlns="http://www.w3.org/2000/svg" viewBox="0 0 943.03 916.25" fill="#2aff00">
  <path d="M926.16,823.47l-163.85-155.37c-16.15-15.06-38.84-18.45-58.06-10.46l-31.09-29.38c129.89-153.46,118.85-383.89-28.75-523.79C491.43-40.31,249.26-33.83,104.41,119.09c-144.75,152.92-138.16,394.96,14.57,539.76,147.74,139.84,378.66,138.56,524.73.57l31.09,29.62c-7.09,19.45-2.48,42.1,13.39,57.12l164.2,155.53c21.35,20.23,55.51,19.29,76.04-2.21,20.18-21.4,19.44-55.61-2.28-76.01h0ZM611.99,600.01h0c-120.37,126.99-321.5,132.49-448.42,12.14-127.19-120.21-132.61-321.67-12.19-448.66,120.37-127.26,321.53-132.52,448.49-12.01,127.07,120.21,132.59,321.4,12.12,448.52h0Z"/>
</svg>