<?xml version="1.0" encoding="UTF-8"?>
<svg id="Capa_1" data-name="Capa 1" xmlns="http://www.w3.org/2000/svg" viewBox="0 0 917.65 917.65">
  <defs>
    <style>
      .cls-1 {
        fill: #2aff00;
        fill-rule: evenodd;
      }
    </style>
  </defs>
  <path class="cls-1" d="M9.79,365.62c-1.99,7.7-3.2,15.51-4.18,23.37-1.17,7.57-2.22,15.18-3.3,22.98-1.08,15.51-2.32,30.85-2.32,46.45,0,16.48,1.24,31.99,2.32,47.33,1.08,7.64,2.12,15.54,3.3,23.21.98,7.51,2.19,15.28,4.18,22.16,1.21,7.08,3.36,14.98,4.41,21.84,4.7,15.28,9.14,30.03,14.52,44,2.16,6.56,4.44,12.9,7.67,19.85,3.33,7.67,5.49,14.2,8.72,20.6,2.15,3.82,3.33,6.82,5.35,10.18,3.72,6.82,6.99,13.55,11.26,19.68,11,18.8,23.24,37.73,36.33,54.25,6.76,8.55,14.52,17.27,22.16,25.07,4.18,5.58,9.92,11.1,14.1,16.75,5.75,5.52,11.13,9.82,16.65,15.6,24.28,21.71,50.72,41.55,80.39,58.33,5.58,2.9,12.14,6.33,18.8,9.82,13.09,6.56,27.62,12.86,40.57,18.77,6.62,1.89,14.53,5.09,21.09,7.64,46.45,15.54,96.1,24.15,147.73,24.15,35.42,0,69.33-4.44,102.4-11.1,14.33-4.44,29.6-7.7,43.87-13.06,7.9-2.55,14.33-5.75,22.26-7.64,13.12-5.91,27.35-12.21,39.73-18.77,6.53-3.49,13.09-6.92,19.84-9.82,28.73-16.78,56.24-36.62,80.36-58.33,5.52-5.78,11.03-10.09,15.31-15.6,5.81-5.65,11.1-11.16,15.57-16.75,7.67-7.8,14.33-16.52,21.71-24.29,10.25-14.1,19.98-28.46,30.03-43.87,2.06-3.36,4.5-7.54,6.66-11.16,4.41-6.14,7.57-12.86,10.97-19.68.92-3.36,3.23-6.36,4.15-10.18,3.36-6.4,7.02-12.93,10.31-20.6,2.06-6.95,5.39-13.29,7.44-19.85,5.62-13.97,10.18-28.72,13.55-44,1.96-6.85,3.98-14.75,5.35-21.84,1.21-6.89,3.17-14.66,4.24-22.16,1.14-7.67,2.32-15.57,2.32-23.21,2.03-15.34,2.03-30.85,2.03-47.33,0-15.6,0-30.94-2.03-46.45,0-7.8-1.17-15.41-2.32-22.98-1.08-7.86-3.03-15.67-4.24-23.37-1.37-6.53-3.39-14.3-5.35-22.06-3.36-14-7.93-28.46-13.55-42.44-1.01-3.88-2.06-7.08-3.3-10.31-4.15-10.97-8.72-20.92-14.46-30.75-.92-2.94-3.23-7.02-4.15-9.76-3.39-6.62-6.56-13.55-10.97-19.84-11.2-18.97-23.14-37.77-36.69-55.2-7.38-8.81-14.04-16.75-21.71-25.33-4.47-5.35-9.76-10.18-15.57-15.54-4.28-5.52-9.79-11.06-15.31-15.47-11.16-9.63-21.97-18.38-33.26-27.62-15.14-11.16-30.75-20.66-47.1-30.85-6.76-3.26-13.32-7.8-19.84-11.06-2.32-.92-5.62-2.09-8.91-4.41-3.46-1.11-6.66-3.33-11.07-4.11-.98-1.14-3.4-2.32-4.31-2.32-5.52-2.29-11-4.18-15.44-6.46h-1.37c-5.39-2.55-10.87-4.41-16.39-6.99-1.14-.91-1.96-.91-4.5-.91-13.19-4.41-26.18-8.62-40.67-11.95-4.41-1.5-8.68-2.29-13.16-3.46-3.23,0-6.53-.98-9.82-.98-24.29-4.8-49.62-7.8-75.11-7.8h-21.84c-46.45,1.24-91.66,9.96-133.41,24.19-6.56,2.41-14.46,4.54-21.09,7.9-2.09,0-4.14.98-6.4,2.29-4.31,1.89-8.75,4.18-14.49,6.49-6.59,2.12-13.15,5.62-19.68,8.52-6.66,3.26-13.22,7.8-18.8,11.06-26.44,14.3-50.72,32.28-72.85,51.77-2.16,2.41-5.39,4.7-7.54,6.69-10.9,9.95-22,20.01-30.75,31.01-7.64,8.58-15.41,16.52-22.16,25.33-13.09,17.43-25.33,36.23-36.33,55.2-4.28,6.3-7.54,13.22-11.26,19.84-2.02,2.74-3.2,6.82-5.35,9.76-4.44,9.56-8.72,19.78-13.03,30.75-1.21,3.23-2.15,6.56-3.36,10.31-5.38,13.97-9.82,28.43-14.52,42.44-1.05,7.77-3.2,15.76-4.41,22.06h0ZM359.32,81.77c.98.92,24.32-47.39,26.34-46.58,4.41-2.12,8.71,0,13.12,0s9.14-2.12,13.29-.82c9.76.82,22,9.5,28.69,5.35,2.19-2.25,2.19-3.46,3.4-6.66,1.08-2.58,3.2-5.38,4.28-8.88h11.13c29.54,0,58.33,3.49,87.09,8.88-2.42,3.2-5.78,2.12-8.98,3.2-3.4,1.21-4.44,4.6-7.8,4.6-8.58,2.12-16.48-2.32-24.12-1.14,0,3.27,4.38,4.14,6.43,5.25,6.95,4.41,12.31,3.49,22.1,3.49,5.52,0,11.2.92,15.7-1.17,3.2-2.32,3.2-6.43,5.38-8.75,1.11-1.08,2.25-2.29,3.2-2.29,5.65,1.21,9.79,2.29,15.7,3.46-1.21,3.27-6.56,1.93-6.56,6.76,3.23,1.99,10.74-1.5,13.94-4.83,1.21,0,2.32,1.34,3.4,1.34,7.6,1.99,14.23,4.31,20.79,6.4,10.02,3.26,20.11,7.8,28.79,12.5-2.09.95-3.33,1.86-5.29,1.86-3.4,0-5.78-5.78-10.09-3.3,0,5.62,5.48,6.82,8.85,10.18,4.44,2.38,8.58,4.11,9.92,9.5-3.4,7.9-9.92-.98-16.68-.98s-16.29,13.58-22.88,2.61c.82-5.81,7.38-7.02,9.92-12.63-2.54,0-3.33,1.5-4.57,1.5-2.15.82-4.54,2.38-6.56,3.2-3.39,2.12-6.59,4.7-11,4.7-3.39.62-6.59.62-9.95,1.6-5.35,1.63-9.92,5.78-15.54,7.9-89.27,33.13-97.01,69.27,89.31,2.45h.95c2.61,0,4.44,0,6.63.82,3.23,1.14,7.86,2.38,12.27,2.38,3.3,0,5.25-2.38,8.58-2.38,4.6,1.14,7.83,6.82,11.2,10.18,3.33,1.96,6.56.78,7.8,4.44-1.24,5.48-5.52,5.48-4.47,11h0c0,4.24,4.47,7.9,6.56,8.71,4.44,0,9.01-.82,12.24-3.39,4.57-2.09,7.8-5.32,11-8.52,5.48,4.24,9.92,7.44,14.46,11.91.78,2.55.78,3.23.78,5.35,1.4,4.83,0,8.75,0,14.46,0,7.7,11.2,6.2,16.58,11,1.05,2.06,2.22,5.38,3.36,6.89,2.25,3.1,5.58,3.1,5.58,6.4,1.24,8.62-7.9,9.56-6.73,18.8-2.22,4.14-6.53,4.14-6.53,8.75,1.01,7.64,12.01,2.25,15.31,7.64,1.14,3.2,0,5.75-2.06,9.63,4.44,5.62,4.44,12.5-2.16,12.5-4.57,0-5.74-4.41-10.08-5.62-2.09,0-5.29,0-7.44-1.27-3.36,0-5.84-.79-7.93-.79-6.59-1.44-13.15.79-16.35-2.51,5.35-7.7,13.12-15.57,20.92-21.77,2.12-2.42,6.56-3.2,5.52-8-3.4-3.1-8.78,0-13.32,2.22-3.36,2.58-8.88,5.78-13.12,6.89-9.14,1.08-18.93-2.29-25.53,1.89-1.08,3.2,6.59,2.38,5.49,7.87-3.33,0-5.49.72-8.68-1.05-2.03-2.16-1.21-5.38-2.03-6.82-2.54-1.89-12.47-3-16.74-1.89-4.31,1.08-9.92,4.28-9.92,8.71,6.53,1.76,16.29-3.62,18.7,4.24-3.2,5.38-12.18,8.78-11,17.89,1.14,3.4,4.44,6.4,7.8,7.8,2.02,0,4.47-2.45,6.59-2.45,3.36,0,2.03,3.36,5.39,3.36,4.41-2.32,7.8-8.72,13.09-8.72,5.81,7.8-6.53,11.92-13.09,14.1-7.51,3.2-18.64,4.8-24.19,6.56-3.3,2.02-15.44,13.32-16.58,4.54-1.08-6.3,5.49-4.54,6.53-10.18-6.53-.91-14.23,3.88-20.82,5.65-9.89,4.54-26.25,6.82-29.57,18.02,0,2.09.79,6.27,0,7.7-1.24.98-9.04.98-11.19,1.79-5.65,2.55-8.81,5.38-12.21,6.79-1.99,0-5.35,0-6.66,1.11-4.05,1.37-146.23,19.62-150.67,23.37-41.94,31.66-110.2,136.31-104.84,156.42,1.34,1.79,6.76,14.2,8.75,16.38,2.38,1.89,10.18,6.56,14.4,6.56,3.2,0,7.7-1.44,10.97-2.25,4.7-1.11,8.97-1.11,13.32-2.16,9.76-3.2,8.94-17.72,18.77-22.13,4.41-1.79,9.76-3.39,18.9-3.39,2.09,2.48,3.36,5.65,3.36,8.78,0,3.88-2.55,5.74-4.7,8.58-1.24,3.82-1.24,6.92-1.86,10.31-1.34,3.2-4.7,5.65-5.94,8.58-1.04,1.6-1.04,4.83-1.04,5.65-1.01,3.56-5.35,5.35-3.2,8.94,10.18,4.34,23.31-1.05,31.89,1.11,4.44,0,12.34,5.48,12.34,10.87,0,4.83-3.36,7.9-4.57,12.05,0,6.86-2.09,14.66-3.33,18.8,0,8.58,11.95,22.13,20.92,22.13,9.79,0,15.31-8.75,26.41-4.14,3.27,1.86,7.67,7.25,12.37,7.25,3.2,0,7.77-6.33,9.79-9.7,3.36-5.35,3.36-10.15,8.75-12.34,4.38-3.2,8.81-.78,15.54-4.01,3.2-1.47,5.38-2.38,8.58-4.57,2.32-2.25,4.41-5.62,7.8-3.33,4.51,4.57-4.44,6.43-1.08,11.13,6.4,2.97,10.05-7.8,15.41-7.8,1.18,0,6.56,3.1,9.96,5.38,3.2,2.42,4.41,5.38,8.97,6.86,3.33,1.04,6.53-1.47,10.71,0,4.6,0,7.8,4.28,12.21,4.28s6.59-5.75,11.19-5.75c7.61-2.19,10.81,1.47,15.11,6.86,4.57,0,9.17,3.3,11.13,6.66,1.24,2.45,1.24,3.23,1.24,4.44,3.33,1.9,7.77,1.9,11,4.15,3.33,2.54,5.38,6.85,10.09,12.24,4.01,4.24,10.8,9.89,16.29,9.89s9.82-.79,14.39-.79c11.03.79,16.39,6.17,24.29,11.55,4.01,3.33,7.8,4.83,8.58,9.11,1.21,2.12,0,5.38,1.21,8.85,2.15,5.78,11,8.84,7.8,19.75,2.12,3.3,5.35,4.99,8.58,6.59,3.3,1.31,5.78,4.51,9.14,5.49,2.16,0,3.2-.98,5.35-.98,5.38.98,9.79,3.4,14.33,4.6,3.2.82,6.56,1.99,8.62,3.2,2.42,1.79,3.33,7.8,5.75,8.68,2.15.98,6.59,0,9.82,0,5.35.98,13.25,4.34,17.66,4.34,3.3,0,5.39-1.04,7.8-1.04,6.73,0,11.16,4.41,15.31,8.68-59.54,95.12-154.2,166.8-267.79,194.28,0-4.54-.95-8.68-.95-13.55-1.24-9.76.95-16.52-1.24-25.2-.95-5.38-2.09-16.42-4.41-19.59-3.36-4.6-13.29-12.4-18.64-15.76-3.33-2.38-7.67-2.38-11.03-4.24-7.74-4.28-23.08-12.08-27.49-19.88-1.24-3.33,0-5.65-1.24-8.68-1.96-4.86,25.53-51.93,22.13-57.42-24.09-36.1-81.7-25.36-63.94-62.93,1.05-1.6,2.38-5.52,3.23-7.7,1.04-2.12,5.75-3.2,7.73-6.56,1.21-.92,2.16-4.54,3.36-6.3,4.44-5.78,9.83-7.02,12.21-12.5.82-3.1,2.02-20.63,0-27.65-1.21-3.2-4.57-6.3-5.65-9.63-2.12-5.35-2.12-12.21-8.71-12.21-3.2,0-6.56,4.57-8.94,6.86,0,3.1,0,7.25-3.23,8.68-6.59.95-7.83-6.82-14.49-7.64-3.26-1.04-7.41-1.04-8.62-2.54-4.57-2.25-6.53-8.59-10.97-11-4.6-2.03-7.8-2.03-11.26-5.35-.69-2.55,0-6.59,0-9.63-5.39-3.79-9.83-14.66-16.29-17.89-4.54-2.42-11.1-.92-15.67-3.36-2.02-.92-4.18-2.38-7.57-2.38-2.19-.82-5.49-.82-8.78-2.06-8.59-4.15-14.49-20.76-26.31-19.68-5.78,0-9.96,4.41-15.67,4.41-4.21,0-12.01-3.36-17.62-6.95-6.56-1.79,0-75.73-5.39-77.95-3.33-2.22-18.77,65.97-22.91,64.01-2.55-.95-6.56-.95-9.14-2.45-3.33-.95-6.56-4.31-9.76-7.51-4.57-2.19-7.8-6.99-7.8-9.79-.95-26.7-60.36-134.58-55-92.83,1.21,7.86,40.67,81.73,14.23,57.55-15.18-14.36-4.44-5.78-6.46-17.73-2.29-7.8-16.65-7.8-16.65-14.62,0-4.18,6.73-5.32,6.73-9.5,0-4.6-6.73-8.78-7.9-11.98-2.06-4.7-2.06-10.18-2.06-15.7-1.17-4.44,0-10.18-1.17-14.33-1.21-3.49-6.59-7.64-9.79-9.96-3.36-2.25-7.8-.91-9.92-4.83-1.34-2.77-2.48-9.5-3.26-12.7-6.66-54.25,84.54-137.71,34.11-203.97,54.97-44.16,98.05-25.23,170.78-37.15h0Z"/>
</svg>