<svg xmlns="http://www.w3.org/2000/svg" xmlns:xlink="http://www.w3.org/1999/xlink" viewBox="0 0 102 81" fill="#fff" fill-rule="evenodd" stroke="#000" stroke-linecap="round" stroke-linejoin="round"><use xlink:href="#A" x=".5" y=".5"/><symbol id="A" overflow="visible"><g fill="#2aff00" stroke="none"><path d="M38.722 14.709c-14.228 0-25.707 11.604-25.707 25.986S24.494 66.68 38.722 66.68 64.43 55.077 64.43 40.695 52.95 14.709 38.722 14.709zm0 47.068c-11.479 0-20.695-9.479-20.695-21.246 0-11.604 9.377-21.083 20.857-21.083s20.857 9.479 20.857 21.083c-.162 11.767-9.539 21.246-21.019 21.246zM97.09 0H28.537h-.323c-1.455.163-2.587 1.308-2.587 2.942v11.767c2.102-.981 4.204-1.798 6.467-2.451v-5.72h61.439v40.858H66.856c-.485 2.288-1.293 4.413-2.425 6.537h32.66c1.617 0 2.91-1.307 2.91-2.942V2.942C100 1.308 98.707 0 97.09 0z"/><path d="M21.585 58.018c-.97-.98-2.425-.98-3.395 0l-1.778 1.798c-1.293-.163-2.425.163-3.395 1.144L1.213 72.891c-1.617 1.634-1.617 4.249 0 5.883a4.07 4.07 0 0 0 5.821 0l11.803-11.931c.97-.981 1.293-2.288 1.132-3.432l1.778-1.798c.809-.981.809-2.615-.162-3.596zm64.349-28.437l-4.204-8.662-7.599 7.681-7.761-15.689-6.306 9.643c.647.654 1.132 1.471 1.779 2.125l4.204-6.374 7.437 14.872 7.599-7.681 3.395 6.701h4.689v-2.615h-3.234zm-32.499-.49l-9.539 15.363-10.348-14.382-7.761 11.931h-5.659c0 1.634.647 3.105 1.132 4.576h6.791l5.659-8.662 10.186 14.709L55.86 33.504c-.485-1.471-1.293-3.105-2.425-4.413z"/></g></symbol></svg>