<?xml version="1.0" encoding="UTF-8"?>
<svg id="Capa_1" data-name="Capa 1" xmlns="http://www.w3.org/2000/svg" viewBox="0 0 935.78 849.41">
  <defs>
    <style>
      .cls-1 {
        fill: #2aff00;
      }
    </style>
  </defs>
  <rect class="cls-1" x="118.23" width="684.22" height="557.61"/>
  <rect class="cls-1" y="557.61" width="935.78" height="291.8"/>
  <path d="M916.07,577.31v252.39H19.71v-252.39h896.36M935.78,557.61H0v291.8h935.77v-291.8h0Z"/>
  <path d="M89.09,631.4v2.73h-2.73v-2.73h2.73M108.8,611.69h-42.14v42.14h42.14v-42.14h0Z"/>
  <polygon points="855.28 632.76 638.95 632.76 638.95 651.94 855.28 651.94 855.28 632.76 855.28 632.76"/>
  <path d="M782.75,19.71v518.2H137.94V19.71h644.81M802.46,0H118.23v557.61h684.22V0h0Z"/>
  <rect x="193.7" y="65.4" width="529.94" height="420.93"/>
  <g>
    <rect class="cls-1" x="416.74" y="287.61" width="174.41" height="88.46"/>
    <path d="M601.01,385.93h-194.12v-108.17h194.12v108.17ZM426.59,366.23h154.71v-68.76h-154.71v68.76Z"/>
  </g>
  <g>
    <rect class="cls-1" x="329.53" y="199.15" width="174.41" height="88.46"/>
    <path d="M513.8,297.47h-194.12v-108.18h194.12v108.18ZM339.38,277.77h154.71v-68.77h-154.71v68.77Z"/>
  </g>
</svg>