<?xml version="1.0" encoding="UTF-8"?>
<svg id="Capa_1" data-name="Capa 1" xmlns="http://www.w3.org/2000/svg" viewBox="0 0 978.53 934.12">
  <defs>
    <style>
      .cls-1 {
        fill-rule: evenodd;
      }
    </style>
  </defs>
  <path class="cls-1" d="M908.36,723.23c-33.5-12.04-66.62-23.32-101.16-33.21,13.45-55.2,22.02-114.72,25.9-176.85h145.44c-7.24,76.96-31.93,148.52-70.17,210.05h0ZM267.67,28.47c-10.81,13.58-19.37,29.8-29.34,45.35-15.02,25.02-27.18,52.24-38.18,80.54-23.63-6.16-46.92-13.43-70.6-22.03,39.56-42.05,86.49-77.79,138.13-103.86h0ZM70.24,209.74c33.55,13.57,66.97,24.78,101.42,33.62-13.64,55.1-22.31,115.9-26.17,176.57H0c7.36-75.53,32.26-147.26,70.24-210.19h0ZM70.24,723.23C32.26,661.69,7.36,590.13,0,513.17h145.49c3.86,62.13,12.53,121.65,26.17,176.85-34.46,9.89-67.87,21.16-101.42,33.21h0ZM129.55,801.06c23.69-7.45,46.97-14.76,70.6-21.16,11,28.61,23.16,54.37,38.18,80.54,9.97,15.87,18.53,30.63,29.34,45.32-51.63-26.73-98.57-61.47-138.13-104.7h0ZM443.22,934.12c-60.65-22.03-113.59-86.28-150.59-176.15,49.16-8.6,99.86-15,150.59-15.98v192.13ZM443.22,647.98c-60.65,2.43-120.9,8.84-180.21,20.88-12.48-47.82-19.79-99.75-23.67-155.69h203.87v134.81ZM443.22,419.93h-203.87c3.88-54.37,11.19-106.02,23.67-154.5,59.31,11.14,119.56,18.58,180.21,21.02v133.48ZM443.22,193c-50.73-2.57-101.42-8.04-150.59-17.57C329.63,86.7,382.57,22.2,443.22.28v192.72ZM908.36,209.74c38.24,62.93,62.93,134.66,70.17,210.19h-145.44c-3.88-60.66-12.44-121.47-25.9-176.57,34.55-8.84,67.66-20.05,101.16-33.62h0ZM849.05,132.33c-23.39,8.6-47.01,15.87-70.17,22.03-11.19-28.3-23.63-55.51-38.36-80.54-9.88-15.56-18.53-31.78-29.6-45.35,51.89,26.07,98.86,61.82,138.13,103.86h0ZM535.71,0c60.3,22.03,113.22,86.7,150.59,175.42-49.41,9.53-100.22,15-150.59,17.57V0ZM535.71,286.45c60.3-2.44,120.97-9.88,180.28-21.02,12.08,48.48,19.47,100.13,23.25,154.5h-203.53v-133.48ZM535.71,513.17h203.53c-3.78,55.94-11.17,107.86-23.25,155.69-59.31-12.04-119.98-18.45-180.28-20.88v-134.81ZM535.71,934.12v-192.41c50.36,1.25,101.18,7.66,150.59,16.26-36.98,89.87-90.28,154.12-150.59,176.15h0ZM710.93,905.75c11.07-14.69,19.72-29.45,29.6-45.32,14.72-26.17,27.17-51.93,38.36-80.54,23.16,6.4,46.78,13.71,70.17,21.16-39.26,43.23-86.23,77.96-138.13,104.7h0Z"/>
</svg>