<?xml version="1.0" encoding="UTF-8"?>
<svg id="Capa_1" data-name="Capa 1" xmlns="http://www.w3.org/2000/svg" viewBox="0 0 805.2 920">
  <defs>
    <style>
      .cls-1 {
        fill: #2aff00;
        fill-rule: evenodd;
      }
    </style>
  </defs>
  <path class="cls-1" d="M575.04,690.01h230.16l-230.16,229.99v-229.99ZM516.79,661.21v258.79H56.74c-31.71,0-56.74-25.95-56.74-57.86V58.12C0,26.67,25.03,0,56.74,0h690.07c31.88,0,58.38,26.67,58.38,58.12v573.87h-259.35c-15.74,0-29.06,13.06-29.06,29.22h0ZM114.86,201c0,15.61,11.98,29.06,27.98,29.06h518.04c15.84,0,29-13.45,29-29.06s-13.16-27.56-29-27.56H142.85c-16,0-27.98,11.42-27.98,27.56h0ZM114.86,374.02c0,15.97,11.98,27.98,27.98,27.98h518.04c15.84,0,29-12.01,29-27.98s-13.16-28.93-29-28.93H142.85c-16,0-27.98,13.03-27.98,28.93h0ZM660.88,575.11c15.84,0,29-13.42,29-29.06s-13.16-28.8-29-28.8H142.85c-16,0-27.98,12.53-27.98,28.8s11.98,29.06,27.98,29.06h518.04Z"/>
</svg>