<?xml version="1.0" encoding="UTF-8"?>
<svg id="Capa_1" data-name="Capa 1" xmlns="http://www.w3.org/2000/svg" viewBox="0 0 780.78 936.46">
  <defs>
    <style>
      .cls-1 {
        fill: #2aff00;
      }
    </style>
  </defs>
  <path class="cls-1" d="M554.27,152.18l-9.72-33.24c-.6-1.81-1.43-3.54-2.46-5.15-7.49-11.71-28.33-22.71-55.49-22.71h-192.79c-18.79-.94-37.21,5.44-51.39,17.79-.84.81-1.58,1.72-2.22,2.69l-1.76,2.22c-.82,1.27-1.45,2.65-1.87,4.1-.04.35-.04.7,0,1.05h0l-18.03,61.34h344.27l-8.55-28.09Z"/>
  <path class="cls-1" d="M64.15,180.15h127.83l5.74-19.67,14.4-48.7c6.35-17.47,20.24-31.15,37.81-37.22,13.92-5.74,28.84-8.64,43.9-8.55h193.03c15.18-.12,30.23,2.83,44.25,8.66,11.14,4.41,21,11.53,28.68,20.72,3.99,4.84,7.01,10.4,8.9,16.39l14.4,48.81,6.32,19.55h127.13l-41.09-138.36h0c-6.36-16.67-19.91-29.58-36.87-35.12l-2.34-.47c-3.13-1.22-6.34-2.24-9.6-3.04h-1.64c-7.82-1.95-15.83-3.01-23.88-3.16H176.76c-34.53.94-64.38,18.03-71.41,41.67l-25.87,87.09-15.33,51.39Z"/>
  <path class="cls-1" d="M780.78,273.45v-57.48c.02-2.86-1.12-5.61-3.16-7.61-2.03-2.08-4.82-3.26-7.73-3.28H10.89c-6.01,0-10.89,4.87-10.89,10.89h0v57.48c.04,1.44.31,2.87.82,4.21,1.86,3.92,5.73,6.48,10.07,6.67h759c6.01,0,10.89-4.87,10.89-10.89h0Z"/>
  <path class="cls-1" d="M142.81,936.46h495.16c13.24.09,24.24-10.19,25.05-23.41l56.54-604.25H61.22l56.42,604.25c.92,13.21,11.93,23.44,25.17,23.41ZM368.03,779.84h-75.97c-22.5-.16-40.6-18.53-40.44-41.03.05-6.96,1.88-13.79,5.32-19.84,4.92-7.14,8.66-14.98,13.23-22.36.92-1.54,2.45-2.6,4.21-2.93h93.18l.47,86.15ZM554.27,698.84c-13.81,22.01-27.74,44.13-41.67,65.9-5.04,8.01-13.96,12.74-23.41,12.41-15.33,0-30.67,0-46-.7-3.63,0-5.03.82-4.92,4.57v19.43c-.38-.12-.79-.12-1.17,0-11.71-20.6-23.41-41.2-35.12-62.04-.75-1.35-.75-2.98,0-4.33,11.71-21.54,23.41-43.08,35.12-65.79v28.21c39.68,0,78.9,1.4,117.88,0l-.7,2.34ZM538.7,566.79c11.71,20.84,23.41,41.56,35.12,62.39,10.73,19.63,3.52,44.24-16.1,54.97-5.83,3.19-12.37,4.9-19.02,4.96h-26.92c-1.65-.03-3.2-.81-4.21-2.11-15.69-26.81-31.02-53.61-46.82-81.12,25.05-14.28,49.52-28.56,74.45-42.96,1.76,1.17,2.58,2.58,3.51,3.86ZM371.07,446.34l76.44.94c11.38-.72,22.11,5.4,27.27,15.57,6.56,12.53,14.16,24.58,21.42,36.76l2.69,4.33,20.84-11.71.59.82c-11.71,20.6-23.41,41.32-35.12,61.92-.89,1.49-2.39,2.51-4.1,2.81-24.35,1.29-48.81,2.46-73.63,2.58l23.41-13.34c-20.49-33.71-38.63-68.36-62.04-100.08l2.22-.59ZM289.13,488.25c4.45-8.08,8.78-16.04,13.34-24,12.12-19.03,37.37-24.63,56.4-12.51,5.77,3.68,10.53,8.74,13.83,14.73,3.98,7.02,8.66,13.46,12.76,20.37.75,1.43.75,3.14,0,4.57-14.87,26.92-29.62,53.73-44.6,80.42l-1.17,1.17-74.57-41.32c8.19-14.75,16.04-29.15,24.11-43.43h-.12ZM205.32,632.11c8.55-14.28,16.97-28.68,25.75-43.19l-21.54-12.99h71.17c2.03-.06,3.99.75,5.38,2.22,13.11,20.84,25.99,41.67,38.28,63.45l-23.41-14.05c-19.08,35.12-40.27,67.54-58.53,102.31l-1.05-1.52c-12.41-23.41-24.93-46.82-37.22-70.23-4.46-8.21-4.01-18.21,1.17-25.99Z"/>
</svg>