<?xml version="1.0" encoding="UTF-8"?>
<svg id="Capa_1" data-name="Capa 1" xmlns="http://www.w3.org/2000/svg" viewBox="0 0 929.02 644.31">
  <defs>
    <style>
      .cls-1, .cls-2 {
        fill: #08ff00;
      }

      .cls-2 {
        font-family: MicrosoftSansSerif, 'Microsoft Sans Serif';
        font-size: 13px;
      }
    </style>
  </defs>
  <path class="cls-1" d="M265.01,79.92h-22.92c-1.52,0-2.76-1.24-2.76-2.76v-10.92c0-1.52,1.24-2.76,2.76-2.76h22.92c1.52,0,2.76,1.24,2.76,2.76v10.92c0,1.52-1.24,2.76-2.76,2.76ZM242.09,64.52c-.94,0-1.71.77-1.71,1.71v10.92c0,.94.77,1.71,1.71,1.71h22.92c.94,0,1.71-.77,1.71-1.71v-10.92c0-.94-.77-1.71-1.71-1.71h-22.92Z"/>
  <path class="cls-1" d="M164.37,184.95h-22.92c-1.52,0-2.76-1.24-2.76-2.76v-10.92c0-1.52,1.24-2.76,2.76-2.76h22.92c1.52,0,2.76,1.24,2.76,2.76v10.92c0,1.52-1.24,2.76-2.76,2.76ZM141.45,169.55c-.94,0-1.71.77-1.71,1.71v10.92c0,.94.77,1.71,1.71,1.71h22.92c.94,0,1.71-.77,1.71-1.71v-10.92c0-.94-.77-1.71-1.71-1.71h-22.92Z"/>
  <path class="cls-1" d="M197.73,223.52h-22.92c-1.52,0-2.76-1.24-2.76-2.76v-10.92c0-1.52,1.24-2.76,2.76-2.76h22.92c1.52,0,2.76,1.24,2.76,2.76v10.92c0,1.52-1.24,2.76-2.76,2.76ZM174.81,208.12c-.94,0-1.71.77-1.71,1.71v10.92c0,.94.77,1.71,1.71,1.71h22.92c.94,0,1.71-.77,1.71-1.71v-10.92c0-.94-.77-1.71-1.71-1.71h-22.92Z"/>
  <path class="cls-1" d="M343.09,253.47h-22.92c-1.52,0-2.76-1.24-2.76-2.76v-10.92c0-1.52,1.24-2.76,2.76-2.76h22.92c1.52,0,2.76,1.24,2.76,2.76v10.92c0,1.52-1.24,2.76-2.76,2.76ZM320.17,238.07c-.94,0-1.71.77-1.71,1.71v10.92c0,.94.77,1.71,1.71,1.71h22.92c.94,0,1.71-.77,1.71-1.71v-10.92c0-.94-.77-1.71-1.71-1.71h-22.92Z"/>
  <path class="cls-1" d="M399.63,334.21h-22.92c-1.52,0-2.76-1.24-2.76-2.76v-10.92c0-1.52,1.24-2.76,2.76-2.76h22.92c1.52,0,2.76,1.24,2.76,2.76v10.92c0,1.52-1.24,2.76-2.76,2.76ZM376.71,318.81c-.94,0-1.71.77-1.71,1.71v10.92c0,.94.77,1.71,1.71,1.71h22.92c.94,0,1.71-.77,1.71-1.71v-10.92c0-.94-.77-1.71-1.71-1.71h-22.92Z"/>
  <path class="cls-1" d="M160.57,246.44h-22.92c-1.52,0-2.76-1.24-2.76-2.76v-10.92c0-1.52,1.24-2.76,2.76-2.76h22.92c1.52,0,2.76,1.24,2.76,2.76v10.92c0,1.52-1.24,2.76-2.76,2.76ZM137.65,231.04c-.94,0-1.71.77-1.71,1.71v10.92c0,.94.77,1.71,1.71,1.71h22.92c.94,0,1.71-.77,1.71-1.71v-10.92c0-.94-.77-1.71-1.71-1.71h-22.92Z"/>
  <path class="cls-1" d="M175.63,302.57h-22.92c-1.52,0-2.76-1.24-2.76-2.76v-10.92c0-1.52,1.24-2.76,2.76-2.76h22.92c1.52,0,2.76,1.24,2.76,2.76v10.92c0,1.52-1.24,2.76-2.76,2.76ZM152.71,287.17c-.94,0-1.71.77-1.71,1.71v10.92c0,.94.77,1.71,1.71,1.71h22.92c.94,0,1.71-.77,1.71-1.71v-10.92c0-.94-.77-1.71-1.71-1.71h-22.92Z"/>
  <path class="cls-1" d="M213.86,337.84h-22.92c-1.52,0-2.76-1.24-2.76-2.76v-10.92c0-1.52,1.24-2.76,2.76-2.76h22.92c1.52,0,2.76,1.24,2.76,2.76v10.92c0,1.52-1.24,2.76-2.76,2.76ZM190.94,322.44c-.94,0-1.71.77-1.71,1.71v10.92c0,.94.77,1.71,1.71,1.71h22.92c.94,0,1.71-.77,1.71-1.71v-10.92c0-.94-.77-1.71-1.71-1.71h-22.92Z"/>
  <path class="cls-1" d="M220.4,391.74h-22.92c-1.52,0-2.76-1.24-2.76-2.76v-10.92c0-1.52,1.24-2.76,2.76-2.76h22.92c1.52,0,2.76,1.24,2.76,2.76v10.92c0,1.52-1.24,2.76-2.76,2.76ZM197.48,376.34c-.94,0-1.71.77-1.71,1.71v10.92c0,.94.77,1.71,1.71,1.71h22.92c.94,0,1.71-.77,1.71-1.71v-10.92c0-.94-.77-1.71-1.71-1.71h-22.92Z"/>
  <path class="cls-1" d="M142.24,365.16h-22.92c-1.52,0-2.76-1.24-2.76-2.76v-10.92c0-1.52,1.24-2.76,2.76-2.76h22.92c1.52,0,2.76,1.24,2.76,2.76v10.92c0,1.52-1.24,2.76-2.76,2.76ZM119.31,349.76c-.94,0-1.71.77-1.71,1.71v10.92c0,.94.77,1.71,1.71,1.71h22.92c.94,0,1.71-.77,1.71-1.71v-10.92c0-.94-.77-1.71-1.71-1.71h-22.92Z"/>
  <path class="cls-1" d="M482.55,424.65h-22.92c-1.52,0-2.76-1.24-2.76-2.76v-10.92c0-1.52,1.24-2.76,2.76-2.76h22.92c1.52,0,2.76,1.24,2.76,2.76v10.92c0,1.52-1.24,2.76-2.76,2.76ZM459.63,409.25c-.94,0-1.71.77-1.71,1.71v10.92c0,.94.77,1.71,1.71,1.71h22.92c.94,0,1.71-.77,1.71-1.71v-10.92c0-.94-.77-1.71-1.71-1.71h-22.92Z"/>
  <path class="cls-1" d="M470.64,397.97h-22.92c-1.52,0-2.76-1.24-2.76-2.76v-10.92c0-1.52,1.24-2.76,2.76-2.76h22.92c1.52,0,2.76,1.24,2.76,2.76v10.92c0,1.52-1.24,2.76-2.76,2.76ZM447.72,382.57c-.94,0-1.71.77-1.71,1.71v10.92c0,.94.77,1.71,1.71,1.71h22.92c.94,0,1.71-.77,1.71-1.71v-10.92c0-.94-.77-1.71-1.71-1.71h-22.92Z"/>
  <path class="cls-1" d="M483.27,381.19h-22.92c-1.52,0-2.76-1.24-2.76-2.76v-10.92c0-1.52,1.24-2.76,2.76-2.76h22.92c1.52,0,2.76,1.24,2.76,2.76v10.92c0,1.52-1.24,2.76-2.76,2.76ZM460.35,365.79c-.94,0-1.71.77-1.71,1.71v10.92c0,.94.77,1.71,1.71,1.71h22.92c.94,0,1.71-.77,1.71-1.71v-10.92c0-.94-.77-1.71-1.71-1.71h-22.92Z"/>
  <path class="cls-1" d="M289.61,444.85h-22.92c-1.52,0-2.76-1.24-2.76-2.76v-10.92c0-1.52,1.24-2.76,2.76-2.76h22.92c1.52,0,2.76,1.24,2.76,2.76v10.92c0,1.52-1.24,2.76-2.76,2.76ZM266.69,429.45c-.94,0-1.71.77-1.71,1.71v10.92c0,.94.77,1.71,1.71,1.71h22.92c.94,0,1.71-.77,1.71-1.71v-10.92c0-.94-.77-1.71-1.71-1.71h-22.92Z"/>
  <path class="cls-1" d="M241.98,440.05h-22.92c-1.52,0-2.76-1.24-2.76-2.76v-10.92c0-1.52,1.24-2.76,2.76-2.76h22.92c1.52,0,2.76,1.24,2.76,2.76v10.92c0,1.52-1.24,2.76-2.76,2.76ZM219.06,424.65c-.94,0-1.71.77-1.71,1.71v10.92c0,.94.77,1.71,1.71,1.71h22.92c.94,0,1.71-.77,1.71-1.71v-10.92c0-.94-.77-1.71-1.71-1.71h-22.92Z"/>
  <path class="cls-1" d="M208.04,302.57h-22.92c-1.52,0-2.76-1.24-2.76-2.76v-10.92c0-1.52,1.24-2.76,2.76-2.76h22.92c1.52,0,2.76,1.24,2.76,2.76v10.92c0,1.52-1.24,2.76-2.76,2.76ZM185.12,287.17c-.94,0-1.71.77-1.71,1.71v10.92c0,.94.77,1.71,1.71,1.71h22.92c.94,0,1.71-.77,1.71-1.71v-10.92c0-.94-.77-1.71-1.71-1.71h-22.92Z"/>
  <path class="cls-1" d="M226.77,184.95h-22.92c-1.52,0-2.76-1.24-2.76-2.76v-10.92c0-1.52,1.24-2.76,2.76-2.76h22.92c1.52,0,2.76,1.24,2.76,2.76v10.92c0,1.52-1.24,2.76-2.76,2.76ZM203.85,169.55c-.94,0-1.71.77-1.71,1.71v10.92c0,.94.77,1.71,1.71,1.71h22.92c.94,0,1.71-.77,1.71-1.71v-10.92c0-.94-.77-1.71-1.71-1.71h-22.92Z"/>
  <path class="cls-1" d="M343.37,115.85h-22.92c-1.52,0-2.76-1.24-2.76-2.76v-10.92c0-1.52,1.24-2.76,2.76-2.76h22.92c1.52,0,2.76,1.24,2.76,2.76v10.92c0,1.52-1.24,2.76-2.76,2.76ZM320.45,100.45c-.94,0-1.71.77-1.71,1.71v10.92c0,.94.77,1.71,1.71,1.71h22.92c.94,0,1.71-.77,1.71-1.71v-10.92c0-.94-.77-1.71-1.71-1.71h-22.92Z"/>
  <path class="cls-1" d="M431.32,137.73h-22.92c-1.52,0-2.76-1.24-2.76-2.76v-10.92c0-1.52,1.24-2.76,2.76-2.76h22.92c1.52,0,2.76,1.24,2.76,2.76v10.92c0,1.52-1.24,2.76-2.76,2.76ZM408.4,122.33c-.94,0-1.71.77-1.71,1.71v10.92c0,.94.77,1.71,1.71,1.71h22.92c.94,0,1.71-.77,1.71-1.71v-10.92c0-.94-.77-1.71-1.71-1.71h-22.92Z"/>
  <path class="cls-1" d="M504.12,114.99h-22.92c-1.52,0-2.76-1.24-2.76-2.76v-10.92c0-1.52,1.24-2.76,2.76-2.76h22.92c1.52,0,2.76,1.24,2.76,2.76v10.92c0,1.52-1.24,2.76-2.76,2.76ZM481.2,99.59c-.94,0-1.71.77-1.71,1.71v10.92c0,.94.77,1.71,1.71,1.71h22.92c.94,0,1.71-.77,1.71-1.71v-10.92c0-.94-.77-1.71-1.71-1.71h-22.92Z"/>
  <path class="cls-1" d="M512.99,163.44h-22.92c-1.52,0-2.76-1.24-2.76-2.76v-10.92c0-1.52,1.24-2.76,2.76-2.76h22.92c1.52,0,2.76,1.24,2.76,2.76v10.92c0,1.52-1.24,2.76-2.76,2.76ZM490.07,148.04c-.94,0-1.71.77-1.71,1.71v10.92c0,.94.77,1.71,1.71,1.71h22.92c.94,0,1.71-.77,1.71-1.71v-10.92c0-.94-.77-1.71-1.71-1.71h-22.92Z"/>
  <path class="cls-1" d="M532.51,211.34h-22.92c-1.52,0-2.76-1.24-2.76-2.76v-10.92c0-1.52,1.24-2.76,2.76-2.76h22.92c1.52,0,2.76,1.24,2.76,2.76v10.92c0,1.52-1.24,2.76-2.76,2.76ZM509.59,195.94c-.94,0-1.71.77-1.71,1.71v10.92c0,.94.77,1.71,1.71,1.71h22.92c.94,0,1.71-.77,1.71-1.71v-10.92c0-.94-.77-1.71-1.71-1.71h-22.92Z"/>
  <path class="cls-1" d="M576.92,163.44h-22.92c-1.52,0-2.76-1.24-2.76-2.76v-10.92c0-1.52,1.24-2.76,2.76-2.76h22.92c1.52,0,2.76,1.24,2.76,2.76v10.92c0,1.52-1.24,2.76-2.76,2.76ZM554,148.04c-.94,0-1.71.77-1.71,1.71v10.92c0,.94.77,1.71,1.71,1.71h22.92c.94,0,1.71-.77,1.71-1.71v-10.92c0-.94-.77-1.71-1.71-1.71h-22.92Z"/>
  <path class="cls-1" d="M612.58,144.73h-22.92c-1.52,0-2.76-1.24-2.76-2.76v-10.92c0-1.52,1.24-2.76,2.76-2.76h22.92c1.52,0,2.76,1.24,2.76,2.76v10.92c0,1.52-1.24,2.76-2.76,2.76ZM589.66,129.33c-.94,0-1.71.77-1.71,1.71v10.92c0,.94.77,1.71,1.71,1.71h22.92c.94,0,1.71-.77,1.71-1.71v-10.92c0-.94-.77-1.71-1.71-1.71h-22.92Z"/>
  <path class="cls-1" d="M638.34,243.31h-22.92c-1.52,0-2.76-1.24-2.76-2.76v-10.92c0-1.52,1.24-2.76,2.76-2.76h22.92c1.52,0,2.76,1.24,2.76,2.76v10.92c0,1.52-1.24,2.76-2.76,2.76ZM615.42,227.91c-.94,0-1.71.77-1.71,1.71v10.92c0,.94.77,1.71,1.71,1.71h22.92c.94,0,1.71-.77,1.71-1.71v-10.92c0-.94-.77-1.71-1.71-1.71h-22.92Z"/>
  <path class="cls-1" d="M558.83,272.75h-22.92c-1.52,0-2.76-1.24-2.76-2.76v-10.92c0-1.52,1.24-2.76,2.76-2.76h22.92c1.52,0,2.76,1.24,2.76,2.76v10.92c0,1.52-1.24,2.76-2.76,2.76ZM535.91,257.35c-.94,0-1.71.77-1.71,1.71v10.92c0,.94.77,1.71,1.71,1.71h22.92c.94,0,1.71-.77,1.71-1.71v-10.92c0-.94-.77-1.71-1.71-1.71h-22.92Z"/>
  <path class="cls-1" d="M560.45,321.64h-22.92c-1.52,0-2.76-1.24-2.76-2.76v-10.92c0-1.52,1.24-2.76,2.76-2.76h22.92c1.52,0,2.76,1.24,2.76,2.76v10.92c0,1.52-1.24,2.76-2.76,2.76ZM537.53,306.24c-.94,0-1.71.77-1.71,1.71v10.92c0,.94.77,1.71,1.71,1.71h22.92c.94,0,1.71-.77,1.71-1.71v-10.92c0-.94-.77-1.71-1.71-1.71h-22.92Z"/>
  <path class="cls-1" d="M639.68,289.05h-22.92c-1.52,0-2.76-1.24-2.76-2.76v-10.92c0-1.52,1.24-2.76,2.76-2.76h22.92c1.52,0,2.76,1.24,2.76,2.76v10.92c0,1.52-1.24,2.76-2.76,2.76ZM616.76,273.65c-.94,0-1.71.77-1.71,1.71v10.92c0,.94.77,1.71,1.71,1.71h22.92c.94,0,1.71-.77,1.71-1.71v-10.92c0-.94-.77-1.71-1.71-1.71h-22.92Z"/>
  <path class="cls-1" d="M629.52,373.53h-22.92c-1.52,0-2.76-1.24-2.76-2.76v-10.92c0-1.52,1.24-2.76,2.76-2.76h22.92c1.52,0,2.76,1.24,2.76,2.76v10.92c0,1.52-1.24,2.76-2.76,2.76ZM606.6,358.13c-.94,0-1.71.77-1.71,1.71v10.92c0,.94.77,1.71,1.71,1.71h22.92c.94,0,1.71-.77,1.71-1.71v-10.92c0-.94-.77-1.71-1.71-1.71h-22.92Z"/>
  <path class="cls-1" d="M656.92,393.46h-22.92c-1.52,0-2.76-1.24-2.76-2.76v-10.92c0-1.52,1.24-2.76,2.76-2.76h22.92c1.52,0,2.76,1.24,2.76,2.76v10.92c0,1.52-1.24,2.76-2.76,2.76ZM634,378.05c-.94,0-1.71.77-1.71,1.71v10.92c0,.94.77,1.71,1.71,1.71h22.92c.94,0,1.71-.77,1.71-1.71v-10.92c0-.94-.77-1.71-1.71-1.71h-22.92Z"/>
  <path class="cls-1" d="M695.6,396.56h-22.92c-1.52,0-2.76-1.24-2.76-2.76v-10.92c0-1.52,1.24-2.76,2.76-2.76h22.92c1.52,0,2.76,1.24,2.76,2.76v10.92c0,1.52-1.24,2.76-2.76,2.76ZM672.68,381.16c-.94,0-1.71.77-1.71,1.71v10.92c0,.94.77,1.71,1.71,1.71h22.92c.94,0,1.71-.77,1.71-1.71v-10.92c0-.94-.77-1.71-1.71-1.71h-22.92Z"/>
  <path class="cls-1" d="M722.48,269.01h-22.92c-1.52,0-2.76-1.24-2.76-2.76v-10.92c0-1.52,1.24-2.76,2.76-2.76h22.92c1.52,0,2.76,1.24,2.76,2.76v10.92c0,1.52-1.24,2.76-2.76,2.76ZM699.56,253.61c-.94,0-1.71.77-1.71,1.71v10.92c0,.94.77,1.71,1.71,1.71h22.92c.94,0,1.71-.77,1.71-1.71v-10.92c0-.94-.77-1.71-1.71-1.71h-22.92Z"/>
  <path class="cls-1" d="M722.48,310.78h-22.92c-1.52,0-2.76-1.24-2.76-2.76v-10.92c0-1.52,1.24-2.76,2.76-2.76h22.92c1.52,0,2.76,1.24,2.76,2.76v10.92c0,1.52-1.24,2.76-2.76,2.76ZM699.56,295.38c-.94,0-1.71.77-1.71,1.71v10.92c0,.94.77,1.71,1.71,1.71h22.92c.94,0,1.71-.77,1.71-1.71v-10.92c0-.94-.77-1.71-1.71-1.71h-22.92Z"/>
  <path class="cls-1" d="M682.08,110.8h-22.92c-1.52,0-2.76-1.24-2.76-2.76v-10.92c0-1.52,1.24-2.76,2.76-2.76h22.92c1.52,0,2.76,1.24,2.76,2.76v10.92c0,1.52-1.24,2.76-2.76,2.76ZM659.16,95.4c-.94,0-1.71.77-1.71,1.71v10.92c0,.94.77,1.71,1.71,1.71h22.92c.94,0,1.71-.77,1.71-1.71v-10.92c0-.94-.77-1.71-1.71-1.71h-22.92Z"/>
  <path class="cls-1" d="M659.13,144.73h-22.92c-1.52,0-2.76-1.24-2.76-2.76v-10.92c0-1.52,1.24-2.76,2.76-2.76h22.92c1.52,0,2.76,1.24,2.76,2.76v10.92c0,1.52-1.24,2.76-2.76,2.76ZM636.21,129.33c-.94,0-1.71.77-1.71,1.71v10.92c0,.94.77,1.71,1.71,1.71h22.92c.94,0,1.71-.77,1.71-1.71v-10.92c0-.94-.77-1.71-1.71-1.71h-22.92Z"/>
  <path class="cls-1" d="M548.9,85.44h-22.92c-1.52,0-2.76-1.24-2.76-2.76v-10.92c0-1.52,1.24-2.76,2.76-2.76h22.92c1.52,0,2.76,1.24,2.76,2.76v10.92c0,1.52-1.24,2.76-2.76,2.76ZM525.98,70.04c-.94,0-1.71.77-1.71,1.71v10.92c0,.94.77,1.71,1.71,1.71h22.92c.94,0,1.71-.77,1.71-1.71v-10.92c0-.94-.77-1.71-1.71-1.71h-22.92Z"/>
  <path class="cls-1" d="M423.37,541.35h-83.8c-.58,0-1.05-.47-1.05-1.05v-28.49H85.29c-.58,0-1.05-.47-1.05-1.05V77.23c0-.58.47-1.05,1.05-1.05h114.87c.28,0,.55.11.74.31l14.41,14.41c.41.41.41,1.08,0,1.49s-1.08.41-1.49,0l-14.11-14.11h-113.38v431.42h253.22c.58,0,1.05.47,1.05,1.05v28.49h82.46l50.78-31c.17-.1.36-.15.55-.15h106.75v-34.45c0-.58.47-1.05,1.05-1.05h179.8V80.64c0-.58.47-1.05,1.05-1.05h25.36v-35.19h-62.31v31.58c0,.58-.47,1.05-1.05,1.05s-1.05-.47-1.05-1.05v-32.64c0-.58.47-1.05,1.05-1.05h64.42c.58,0,1.05.47,1.05,1.05v37.29c0,.58-.47,1.05-1.05,1.05h-25.36v391.96c0,.58-.47,1.05-1.05,1.05h-179.8v34.45c0,.58-.47,1.05-1.05,1.05h-107.5l-50.78,31c-.17.1-.36.15-.55.15Z"/>
  <path class="cls-1" d="M134.22,278.26c-.27,0-.54-.1-.74-.31l-16.43-16.43c-.2-.2-.31-.46-.31-.74v-103.3h-7.45c-.58,0-1.05-.47-1.05-1.05v-65.4c0-.58.47-1.05,1.05-1.05h131.97c.28,0,.55.11.74.31l14.79,14.79,32.96-32.97c.2-.2.46-.31.74-.31h213.72c.28,0,.55.11.74.31l34.82,34.82,31.49-29.96c.2-.19.46-.29.73-.29h157.35c.58,0,1.05.47,1.05,1.05v102.2c0,.13-.02.25-.07.37l-.13.36c-.15.41-.55.68-.98.68h-6.63c-.58,0-1.05-.47-1.05-1.05v-97.7h-148.03l-33.27,33.27c-.39.39-1.09.39-1.49,0l-36.31-36.31h-208.64l-35.77,35.77c-.41.41-1.08.41-1.49,0l-15.72-15.72h-125.83v51.62h5.66c.58,0,1.05.47,1.05,1.05v106.02l15.72,15.72c.2.2.31.46.31.74s-.11.55-.31.74l-2.46,2.46c-.21.21-.47.31-.74.31ZM118.84,260.34l15.38,15.38.97-.97-15.28-15.28c-.2-.2-.31-.46-.31-.74v-105.4h-5.66c-.58,0-1.05-.47-1.05-1.05v-53.72c0-.58.47-1.05,1.05-1.05h127.32c.28,0,.55.11.74.31l15.28,15.28,35.34-35.34c.2-.2.46-.31.74-.31h209.51c.28,0,.55.11.74.31l35.88,35.88,32.83-32.83c.2-.2.46-.31.74-.31h149.52c.58,0,1.05.47,1.05,1.05v97.7h4.66v-100.46h-155.88l-31.93,30.38c-.41.39-1.06.39-1.47-.02l-35.24-35.24h-212.85l-33.4,33.4c-.41.41-1.08.41-1.49,0l-15.23-15.23H110.34v63.3h7.45c.58,0,1.05.47,1.05,1.05v103.92ZM729.35,179.93h.01-.01Z"/>
  <path class="cls-1" d="M248.15,283.99h-57.77c-.58,0-1.05-.47-1.05-1.04l-.04-5.87h-53.88c-.58,0-1.05-.47-1.05-1.05s.47-1.05,1.05-1.05h53.88v-37.42c0-.58.47-1.05,1.05-1.05h57.82c.58,0,1.05.47,1.05,1.05v45.39c0,.58-.47,1.05-1.05,1.05ZM191.43,281.88h55.67v-43.29h-55.71v37.42l.04,5.87Z"/>
  <path class="cls-1" d="M248.15,251.17h-57.82c-.58,0-1.05-.47-1.05-1.05s.47-1.05,1.05-1.05h57.82c.58,0,1.05.47,1.05,1.05s-.47,1.05-1.05,1.05Z"/>
  <path class="cls-1" d="M248.15,255.92h-57.82c-.58,0-1.05-.47-1.05-1.05s.47-1.05,1.05-1.05h57.82c.58,0,1.05.47,1.05,1.05s-.47,1.05-1.05,1.05Z"/>
  <path class="cls-1" d="M248.15,261.29h-57.82c-.58,0-1.05-.47-1.05-1.05s.47-1.05,1.05-1.05h57.82c.58,0,1.05.47,1.05,1.05s-.47,1.05-1.05,1.05Z"/>
  <path class="cls-1" d="M248.15,266.04h-57.82c-.58,0-1.05-.47-1.05-1.05s.47-1.05,1.05-1.05h57.82c.58,0,1.05.47,1.05,1.05s-.47,1.05-1.05,1.05Z"/>
  <path class="cls-1" d="M248.15,272.13h-57.82c-.58,0-1.05-.47-1.05-1.05s.47-1.05,1.05-1.05h57.82c.58,0,1.05.47,1.05,1.05s-.47,1.05-1.05,1.05Z"/>
  <path class="cls-1" d="M219.77,272.13c-.58,0-1.05-.47-1.05-1.05v-20.95c0-.58.47-1.05,1.05-1.05s1.05.47,1.05,1.05v20.95c0,.58-.47,1.05-1.05,1.05Z"/>
  <path class="cls-1" d="M248.15,238.6c-.58,0-1.05-.47-1.05-1.05v-75.44l-7.58-7.58h-118.87c-.58,0-1.05-.47-1.05-1.05s.47-1.05,1.05-1.05h119.3c.28,0,.55.11.74.31l8.19,8.19c.2.2.31.46.31.74v75.88c0,.58-.47,1.05-1.05,1.05Z"/>
  <path class="cls-1" d="M248.15,202.74h-127.5c-.58,0-1.05-.47-1.05-1.05s.47-1.05,1.05-1.05h127.5c.58,0,1.05.47,1.05,1.05s-.47,1.05-1.05,1.05Z"/>
  <path class="cls-1" d="M221.38,238.6c-.58,0-1.05-.47-1.05-1.05v-16.16c0-.58.47-1.05,1.05-1.05h26.77c.58,0,1.05.47,1.05,1.05s-.47,1.05-1.05,1.05h-25.72v15.11c0,.58-.47,1.05-1.05,1.05Z"/>
  <path class="cls-1" d="M183.42,202.74c-.58,0-1.05-.47-1.05-1.05v-48.21c0-.58.47-1.05,1.05-1.05s1.05.47,1.05,1.05v48.21c0,.58-.47,1.05-1.05,1.05Z"/>
  <path class="cls-1" d="M134.22,304.27c-.58,0-1.05-.47-1.05-1.05v-26.01c0-.58.47-1.05,1.05-1.05s1.05.47,1.05,1.05v26.01c0,.58-.47,1.05-1.05,1.05Z"/>
  <path class="cls-1" d="M172.95,457.64c-.58,0-1.05-.47-1.05-1.05v-49.69c0-.58.47-1.05,1.05-1.05h233.44v-35.48c0-.58.47-1.05,1.05-1.05h23.37c.58,0,1.05.47,1.05,1.05v56.68c0,.58-.47,1.05-1.05,1.05s-1.05-.47-1.05-1.05v-55.62h-21.26v35.48c0,.58-.47,1.05-1.05,1.05h-233.44v48.64c0,.58-.47,1.05-1.05,1.05Z"/>
  <path class="cls-1" d="M248.15,407.95c-.58,0-1.05-.47-1.05-1.05v-98.87h-73.1v98.87c0,.58-.47,1.05-1.05,1.05s-1.05-.47-1.05-1.05v-99.92c0-.58.47-1.05,1.05-1.05h75.21c.58,0,1.05.47,1.05,1.05v99.92c0,.58-.47,1.05-1.05,1.05Z"/>
  <path class="cls-1" d="M248.15,360.67h-75.21c-.58,0-1.05-.47-1.05-1.05s.47-1.05,1.05-1.05h75.21c.58,0,1.05.47,1.05,1.05s-.47,1.05-1.05,1.05Z"/>
  <path class="cls-1" d="M415.58,482.26h-7.25c-.58,0-1.05-.47-1.05-1.05v-5.22h-234.42c-.58,0-1.05-.47-1.05-1.05v-12.02h-61.44c-.58,0-1.05-.47-1.05-1.05v-52.13h-6.65c-.58,0-1.05-.47-1.05-1.05v-104.66c0-.58.47-1.05,1.05-1.05h43.42c.58,0,1.05.47,1.05,1.05v16.92c0,.58-.47,1.05-1.05,1.05h-5.77c-.58,0-1.05-.47-1.05-1.05v-10.36h-29.19v92.17h4.99c.58,0,1.05.47,1.05,1.05v52.8c61.77-.2,61.85-.12,62.28.31.38.38.51.51.32,10.97h226.99v-14.26c0-.58.47-1.05,1.05-1.05h20.8l-.05-25.54c0-.28.11-.55.31-.74.2-.2.47-.31.74-.31h6.63c.58,0,1.05.47,1.05,1.05v31.16c0,.58-.47,1.05-1.05,1.05h-22.5v12.58h2.89c.58,0,1.05.47,1.05,1.05v8.33c0,.58-.47,1.05-1.05,1.05ZM409.38,480.16h5.15v-6.22h-2.89c-.58,0-1.05-.47-1.05-1.05v-14.68c0-.58.47-1.05,1.05-1.05h22.5v-29.05h-4.52l.05,25.54c0,.28-.11.55-.31.74-.2.2-.47.31-.74.31h-20.81v14.26c0,.58-.47,1.05-1.05,1.05h-229.12c-.28,0-.55-.11-.75-.32-.2-.2-.31-.47-.3-.76.07-4,.12-8.44.07-10.25-6.37-.11-45.87-.01-61.6.04-.25.02-.55-.11-.75-.31-.2-.2-.31-.47-.31-.74v-52.8h-4.99c-.58,0-1.05-.47-1.05-1.05v-94.28c0-.58.47-1.05,1.05-1.05h31.29c.58,0,1.05.47,1.05,1.05v10.36h3.67v-14.82h-41.32v102.56h6.65c.58,0,1.05.47,1.05,1.05v52.13h61.44c.58,0,1.05.47,1.05,1.05v12.02h234.42c.58,0,1.05.47,1.05,1.05v5.22Z"/>
  <path class="cls-1" d="M376.99,469.64c-.58,0-1.05-.47-1.05-1.05v-28.65c0-9.87,11.47-12.38,11.58-12.4.07-.02.14-.02.21-.02h19.03c.58,0,1.05.47,1.05,1.05v25.07c0,.58-.47,1.05-1.05,1.05s-1.05-.47-1.05-1.05v-24.02h-17.86c-1.1.25-9.81,2.51-9.81,10.32v28.65c0,.58-.47,1.05-1.05,1.05Z"/>
  <path class="cls-1" d="M319.74,469.99c-.58,0-1.05-.47-1.05-1.05v-24.31c0-.58.47-1.05,1.05-1.05h57.26c.58,0,1.05.47,1.05,1.05s-.47,1.05-1.05,1.05h-56.2v23.26c0,.58-.47,1.05-1.05,1.05Z"/>
  <path class="cls-1" d="M349.28,469.99c-.58,0-1.05-.47-1.05-1.05v-24.31c0-.58.47-1.05,1.05-1.05s1.05.47,1.05,1.05v24.31c0,.58-.47,1.05-1.05,1.05Z"/>
  <path class="cls-1" d="M232.98,469.99c-.58,0-1.05-.47-1.05-1.05v-16.52c0-.58.47-1.05,1.05-1.05h86.76c.58,0,1.05.47,1.05,1.05s-.47,1.05-1.05,1.05h-85.71v15.47c0,.58-.47,1.05-1.05,1.05Z"/>
  <path class="cls-1" d="M254.87,469.99c-.58,0-1.05-.47-1.05-1.05v-16.52c0-.58.47-1.05,1.05-1.05s1.05.47,1.05,1.05v16.52c0,.58-.47,1.05-1.05,1.05Z"/>
  <path class="cls-1" d="M276.36,469.99c-.58,0-1.05-.47-1.05-1.05v-16.52c0-.58.47-1.05,1.05-1.05s1.05.47,1.05,1.05v16.52c0,.58-.47,1.05-1.05,1.05Z"/>
  <path class="cls-1" d="M297.84,469.99c-.58,0-1.05-.47-1.05-1.05v-16.52c0-.58.47-1.05,1.05-1.05s1.05.47,1.05,1.05v16.52c0,.58-.47,1.05-1.05,1.05Z"/>
  <path class="cls-1" d="M172.95,322h-26.86c-.58,0-1.05-.47-1.05-1.05s.47-1.05,1.05-1.05h26.86c.58,0,1.05.47,1.05,1.05s-.47,1.05-1.05,1.05Z"/>
  <path class="cls-1" d="M513.4,460.46h-26.32c-.58,0-1.05-.47-1.05-1.05v-25.94h-50.83c-.58,0-1.05-.47-1.05-1.05s.47-1.05,1.05-1.05h51.88c.58,0,1.05.47,1.05,1.05v25.94h24.22v-31.18c0-.58.47-1.05,1.05-1.05s1.05.47,1.05,1.05v32.23c0,.58-.47,1.05-1.05,1.05Z"/>
  <path class="cls-1" d="M513.4,439.11h-26.32c-.58,0-1.05-.47-1.05-1.05s.47-1.05,1.05-1.05h26.32c.58,0,1.05.47,1.05,1.05s-.47,1.05-1.05,1.05Z"/>
  <path class="cls-1" d="M433.94,372.4h-3.13c-.58,0-1.05-.47-1.05-1.05s.47-1.05,1.05-1.05h2.08v-9.07c0-.58.47-1.05,1.05-1.05h4.95v-7.27c0-.58.47-1.05,1.05-1.05s1.05.47,1.05,1.05v8.33c0,.58-.47,1.05-1.05,1.05h-4.95v9.07c0,.58-.47,1.05-1.05,1.05Z"/>
  <path class="cls-1" d="M446.51,353.96h-18.67c-.58,0-1.05-.47-1.05-1.05v-53.85c0-.58.47-1.05,1.05-1.05h43.24c.28,0,.55.11.75.31s.31.47.31.75c-.05,9.8-.1,24.62-.02,25.98.07.34-.04.7-.29.95-.25.25-.62.36-.96.29-1.14-.07-11.15-.03-18.34.02v17.35c0,.58-.47,1.05-1.05,1.05h-3.92v8.21c0,.58-.47,1.05-1.05,1.05ZM428.9,351.86h16.56v-8.21c0-.58.47-1.05,1.05-1.05h3.92v-17.35c0-.58.47-1.05,1.04-1.05,0,0,4.89-.03,9.79-.05,4.69-.01,7.28-.02,8.74.04-.02-.7-.02-1.68-.02-3.05,0-2.46,0-5.73,0-9,.01-4.96.03-9.91.05-12.02h-41.14v51.75ZM470.12,325.59h-.02s.02,0,.02,0Z"/>
  <path class="cls-1" d="M451.48,326.29c-.58,0-1.05-.47-1.05-1.05v-26.19c0-.58.47-1.05,1.05-1.05s1.05.47,1.05,1.05v26.19c0,.58-.47,1.05-1.05,1.05Z"/>
  <path class="cls-1" d="M656.96,434.27h-126.38c-.28,0-.54-.11-.74-.3l-6.68-6.55h-11.66c-.58,0-1.05-.47-1.05-1.05v-5.64c0-.58.47-1.05,1.05-1.05h12.89c.27,0,.54.11.73.3l8.56,8.3h120.82l9.63-9.5c.2-.19.46-.3.74-.3h47.97v-52.53c0-.58.47-1.05,1.05-1.05h10.5v-160.68c0-.58.47-1.05,1.05-1.05h5.01s0-.01,0-.01c.28,0,.55.11.74.31.2.2.31.47.31.74v166.17c0,.58-.47,1.05-1.05,1.05h-10.68v52.6c0,.58-.47,1.05-1.05,1.05h-51.82l-9.23,8.91c-.2.19-.46.29-.73.29ZM531.02,432.17h125.52l9.23-8.91c.2-.19.46-.29.73-.29h51.19v-52.6c0-.58.47-1.05,1.05-1.05h10.68v-164.07h-2.91v160.69c0,.58-.47,1.05-1.05,1.05h-10.5v52.53c0,.58-.47,1.05-1.05,1.05h-48.59l-9.63,9.5c-.2.19-.46.3-.74.3h-121.68c-.27,0-.54-.11-.73-.3l-8.56-8.3h-11.41v3.54h11.03c.28,0,.54.11.74.3l6.68,6.55Z"/>
  <path class="cls-1" d="M725.46,326.97h-34.11c-.58,0-1.05-.47-1.05-1.05v-86.89c0-.58.47-1.05,1.05-1.05h34.11c.58,0,1.05.47,1.05,1.05s-.47,1.05-1.05,1.05h-33.06v84.79h33.06c.58,0,1.05.47,1.05,1.05s-.47,1.05-1.05,1.05Z"/>
  <path class="cls-1" d="M725.46,284.39h-34.11c-.58,0-1.05-.47-1.05-1.05s.47-1.05,1.05-1.05h34.11c.58,0,1.05.47,1.05,1.05s-.47,1.05-1.05,1.05Z"/>
  <path class="cls-1" d="M700.92,367.39c-.58,0-1.05-.47-1.05-1.05v-40.42c0-.58.47-1.05,1.05-1.05s1.05.47,1.05,1.05v40.42c0,.58-.47,1.05-1.05,1.05Z"/>
  <path class="cls-1" d="M700.92,344.42h-193.57c-.58,0-1.05-.47-1.05-1.05v-17.46c0-.58.47-1.05,1.05-1.05s1.05.47,1.05,1.05v16.41h192.52c.58,0,1.05.47,1.05,1.05s-.47,1.05-1.05,1.05Z"/>
  <path class="cls-1" d="M665.29,420.57c-.58,0-1.05-.47-1.05-1.05v-76.15c0-.58.47-1.05,1.05-1.05s1.05.47,1.05,1.05v76.15c0,.58-.47,1.05-1.05,1.05Z"/>
  <path class="cls-1" d="M584.84,430.38c-.58,0-1.05-.47-1.05-1.05v-85.95c0-.58.47-1.05,1.05-1.05s1.05.47,1.05,1.05v85.95c0,.58-.47,1.05-1.05,1.05Z"/>
  <path class="cls-1" d="M619.63,430.38c-.58,0-1.05-.47-1.05-1.05v-21.22c0-.58.47-1.05,1.05-1.05h45.66c.58,0,1.05.47,1.05,1.05s-.47,1.05-1.05,1.05h-44.61v20.17c0,.58-.47,1.05-1.05,1.05Z"/>
  <path class="cls-1" d="M619.63,409.16c-.58,0-1.05-.47-1.05-1.05v-4.32h-33.73c-.58,0-1.05-.47-1.05-1.05s.47-1.05,1.05-1.05h34.78c.58,0,1.05.47,1.05,1.05v5.37c0,.58-.47,1.05-1.05,1.05Z"/>
  <path class="cls-1" d="M634.94,430.38c-.58,0-1.05-.47-1.05-1.05v-21.22c0-.58.47-1.05,1.05-1.05s1.05.47,1.05,1.05v21.22c0,.58-.47,1.05-1.05,1.05Z"/>
  <path class="cls-1" d="M517.02,421.78c-.58,0-1.05-.47-1.05-1.05v-27.73h-8.8c-.58,0-1.05-.47-1.05-1.05v-18.98c0-.58.47-1.05,1.05-1.05h23.01c.58,0,1.05.47,1.05,1.05v18.89c0,.58-.47,1.05-1.05,1.05h-12.11v27.82c0,.58-.47,1.05-1.05,1.05ZM508.23,390.89h8.37c.13-.06.27-.09.43-.09h12.11v-16.79h-20.91v16.88Z"/>
  <path class="cls-1" d="M665.83,326.97h-176.74c-.58,0-1.05-.47-1.05-1.05v-26.86c0-.58.47-1.05,1.05-1.05h100.48v-150.5l-10.26-10.26c-.2-.2-.31-.46-.31-.74v-54.97c0-.58.47-1.05,1.05-1.05s1.05.47,1.05,1.05v54.54l10.26,10.26c.2.2.31.46.31.74v151.98c0,.58-.47,1.05-1.05,1.05h-100.48v24.76h174.64v-147.22c0-.58.47-1.05,1.05-1.05h56.76c.58,0,1.05.47,1.05,1.05s-.47,1.05-1.05,1.05h-55.71v147.22c0,.58-.47,1.05-1.05,1.05Z"/>
  <path class="cls-1" d="M722.59,109.26h-34.07c-.58,0-1.05-.47-1.05-1.05v-26.68c0-.58.47-1.05,1.05-1.05s1.05.47,1.05,1.05v25.63h33.02c.58,0,1.05.47,1.05,1.05s-.47,1.05-1.05,1.05Z"/>
  <path class="cls-1" d="M706.25,109.26c-.58,0-1.05-.47-1.05-1.05v-26.68c0-.58.47-1.05,1.05-1.05s1.05.47,1.05,1.05v26.68c0,.58-.47,1.05-1.05,1.05Z"/>
  <path class="cls-1" d="M716.12,203.74h-50.09c-.58,0-1.05-.47-1.05-1.05s.47-1.05,1.05-1.05h49.04v-24c0-.58.47-1.05,1.05-1.05s1.05.47,1.05,1.05v25.05c0,.58-.47,1.05-1.05,1.05Z"/>
  <path class="cls-1" d="M690.67,203.74c-.58,0-1.05-.47-1.05-1.05v-25.05c0-.58.47-1.05,1.05-1.05s1.05.47,1.05,1.05v25.05c0,.58-.47,1.05-1.05,1.05Z"/>
  <path class="cls-1" d="M590.62,326.97c-.58,0-1.05-.47-1.05-1.05v-26.86c0-.58.47-1.05,1.05-1.05h75.21c.58,0,1.05.47,1.05,1.05s-.47,1.05-1.05,1.05h-74.16v25.81c0,.58-.47,1.05-1.05,1.05Z"/>
  <path class="cls-1" d="M507.35,326.97c-.58,0-1.05-.47-1.05-1.05v-26.86c0-.58.47-1.05,1.05-1.05s1.05.47,1.05,1.05v26.86c0,.58-.47,1.05-1.05,1.05Z"/>
  <path class="cls-1" d="M614.97,326.97c-.58,0-1.05-.47-1.05-1.05v-26.86c0-.58.47-1.05,1.05-1.05s1.05.47,1.05,1.05v26.86c0,.58-.47,1.05-1.05,1.05Z"/>
  <path class="cls-1" d="M640.22,326.97c-.58,0-1.05-.47-1.05-1.05v-26.86c0-.58.47-1.05,1.05-1.05s1.05.47,1.05,1.05v26.86c0,.58-.47,1.05-1.05,1.05Z"/>
  <path class="cls-1" d="M665.29,258.25h-74.67c-.58,0-1.05-.47-1.05-1.05s.47-1.05,1.05-1.05h74.67c.58,0,1.05.47,1.05,1.05s-.47,1.05-1.05,1.05Z"/>
  <path class="cls-1" d="M454.91,142.17h-12.56c-.58,0-1.05-.47-1.05-1.05s.47-1.05,1.05-1.05h11.51v-7.48c0-.28.11-.55.31-.74l10.68-10.68c.2-.2.46-.31.74-.31h3.92v-24.2c0-.22.07-.43.2-.61l13.03-18.18c.34-.47.99-.58,1.47-.24.47.34.58,1,.24,1.47l-12.83,17.9v24.91c0,.58-.47,1.05-1.05,1.05h-4.53l-10.06,10.06v8.09c0,.58-.47,1.05-1.05,1.05Z"/>
  <path class="cls-1" d="M471.09,286.72h-28.74c-.58,0-1.05-.47-1.05-1.05V78.49c0-.58.47-1.05,1.05-1.05s1.05.47,1.05,1.05v206.13h26.64v-62.7c0-.58.47-1.05,1.05-1.05h18c.58,0,1.05.47,1.05,1.05v7.19h100.48c.58,0,1.05.47,1.05,1.05s-.47,1.05-1.05,1.05h-101.53c-.58,0-1.05-.47-1.05-1.05v-7.19h-15.89v62.7c0,.58-.47,1.05-1.05,1.05Z"/>
  <path class="cls-1" d="M442.35,153.32h-12.36c-.58,0-1.05-.47-1.05-1.05s.47-1.05,1.05-1.05h12.36c.58,0,1.05.47,1.05,1.05s-.47,1.05-1.05,1.05Z"/>
  <path class="cls-1" d="M442.35,184.2h-56.67c-.58,0-1.05-.47-1.05-1.05v-104.66c0-.58.47-1.05,1.05-1.05s1.05.47,1.05,1.05v103.61h55.62c.58,0,1.05.47,1.05,1.05s-.47,1.05-1.05,1.05Z"/>
  <path class="cls-1" d="M590.62,178.7h-126.06c-.58,0-1.05-.47-1.05-1.05v-34.07c0-.28.11-.55.31-.74l7.07-7.07c.2-.2.46-.31.74-.31h108.42c.58,0,1.05.47,1.05,1.05s-.47,1.05-1.05,1.05h-107.99l-6.46,6.46v32.58h125.01c.58,0,1.05.47,1.05,1.05s-.47,1.05-1.05,1.05Z"/>
  <path class="cls-1" d="M537.44,178.7c-.58,0-1.05-.47-1.05-1.05v-41.14c0-.58.47-1.05,1.05-1.05s1.05.47,1.05,1.05v41.14c0,.58-.47,1.05-1.05,1.05Z"/>
  <path class="cls-1" d="M508.16,137.56c-.58,0-1.05-.47-1.05-1.05v-15.94c0-.58.47-1.05,1.05-1.05s1.05.47,1.05,1.05v15.94c0,.58-.47,1.05-1.05,1.05Z"/>
  <path class="cls-1" d="M507.35,286.72h-18.26c-.58,0-1.05-.47-1.05-1.05v-55.51c0-.58.47-1.05,1.05-1.05s1.05.47,1.05,1.05v54.46h16.16v-54.46c0-.58.47-1.05,1.05-1.05s1.05.47,1.05,1.05v55.51c0,.58-.47,1.05-1.05,1.05Z"/>
  <path class="cls-1" d="M665.83,214.02h-75.21c-.58,0-1.05-.47-1.05-1.05s.47-1.05,1.05-1.05h75.21c.58,0,1.05.47,1.05,1.05s-.47,1.05-1.05,1.05Z"/>
  <path class="cls-1" d="M471.09,254.67h-28.74c-.58,0-1.05-.47-1.05-1.05s.47-1.05,1.05-1.05h28.74c.58,0,1.05.47,1.05,1.05s-.47,1.05-1.05,1.05Z"/>
  <path class="cls-1" d="M471.09,230.13h-28.74c-.58,0-1.05-.47-1.05-1.05s.47-1.05,1.05-1.05h28.74c.58,0,1.05.47,1.05,1.05s-.47,1.05-1.05,1.05Z"/>
  <path class="cls-1" d="M560.18,402.4h-43.16c-.58,0-1.05-.47-1.05-1.05s.47-1.05,1.05-1.05h43.16c.58,0,1.05.47,1.05,1.05s-.47,1.05-1.05,1.05Z"/>
  <path class="cls-1" d="M522.93,374.02c-.58,0-1.05-.47-1.05-1.05v-29.59c0-.58.47-1.05,1.05-1.05s1.05.47,1.05,1.05v29.59c0,.58-.47,1.05-1.05,1.05Z"/>
  <path class="cls-1" d="M558.92,382.88h-28.74c-.58,0-1.05-.47-1.05-1.05s.47-1.05,1.05-1.05h27.69v-37.4c0-.58.47-1.05,1.05-1.05s1.05.47,1.05,1.05v38.45c0,.58-.47,1.05-1.05,1.05Z"/>
  <path class="cls-1" d="M141.38,407.81h-26.32c-.58,0-1.05-.47-1.05-1.05s.47-1.05,1.05-1.05h26.32c.58,0,1.05.47,1.05,1.05s-.47,1.05-1.05,1.05Z"/>
  <path class="cls-1" d="M205.09,119.29h-55.87c-.52,0-.96-.37-1.04-.88l-3.22-19.7c-.09-.57.3-1.11.87-1.21.58-.09,1.11.3,1.21.87l3.08,18.82h54.31l9.03-19.1c.25-.52.87-.75,1.4-.5.52.25.75.88.5,1.4l-9.31,19.7c-.17.37-.54.6-.95.6Z"/>
  <path class="cls-1" d="M535.02,484.41h-8.51c-.58,0-1.05-.47-1.05-1.05v-8.51c0-.58.47-1.05,1.05-1.05h8.51c.58,0,1.05.47,1.05,1.05v8.51c0,.58-.47,1.05-1.05,1.05ZM527.56,482.31h6.4v-6.4h-6.4v6.4Z"/>
  <path class="cls-1" d="M513.4,488.66h-8.51c-.58,0-1.05-.47-1.05-1.05v-8.51c0-.58.47-1.05,1.05-1.05h8.51c.58,0,1.05.47,1.05,1.05v8.51c0,.58-.47,1.05-1.05,1.05ZM505.94,486.56h6.4v-6.4h-6.4v6.4Z"/>
  <path class="cls-1" d="M492.58,492.92h-8.51c-.58,0-1.05-.47-1.05-1.05v-8.51c0-.58.47-1.05,1.05-1.05h8.51c.58,0,1.05.47,1.05,1.05v8.51c0,.58-.47,1.05-1.05,1.05ZM485.13,490.81h6.4v-6.4h-6.4v6.4Z"/>
  <path class="cls-1" d="M455.33,490.77h-8.51c-.58,0-1.05-.47-1.05-1.05v-8.51c0-.58.47-1.05,1.05-1.05h8.51c.58,0,1.05.47,1.05,1.05v8.51c0,.58-.47,1.05-1.05,1.05ZM447.88,488.66h6.4v-6.4h-6.4v6.4Z"/>
  <path class="cls-1" d="M435.99,486.51h-8.51c-.58,0-1.05-.47-1.05-1.05v-8.51c0-.58.47-1.05,1.05-1.05h8.51c.58,0,1.05.47,1.05,1.05v8.51c0,.58-.47,1.05-1.05,1.05ZM428.54,484.41h6.4v-6.4h-6.4v6.4Z"/>
  <circle class="cls-1" cx="528.54" cy="448.36" r="7.08"/>
  <circle class="cls-1" cx="547.89" cy="448.36" r="7.08"/>
  <circle class="cls-1" cx="93.55" cy="523.16" r="7.08"/>
  <circle class="cls-1" cx="528.54" cy="562.51" r="7.08"/>
  <circle class="cls-1" cx="755.1" cy="488.8" r="7.08"/>
  <circle class="cls-1" cx="776.51" cy="96.69" r="7.08"/>
  <circle class="cls-1" cx="881.16" cy="96.69" r="7.08"/>
  <circle class="cls-1" cx="839.71" cy="596.72" r="7.08"/>
  <path class="cls-1" d="M30.99,538.21c-5.54,0-10.04-4.5-10.04-10.04V10.04c0-5.54,4.5-10.04,10.04-10.04h715.55c5.54,0,10.04,4.5,10.04,10.04s-4.5,10.04-10.04,10.04H41.03v508.09c0,5.54-4.5,10.04-10.04,10.04ZM24.11,10.04v518.13c0,3.8,3.09,6.88,6.88,6.88s6.88-3.09,6.88-6.88V18.84c-.05-.23-.05-.47,0-.7.18-.7.77-1.22,1.49-1.22h707.18c3.8,0,6.88-3.09,6.88-6.88s-3.09-6.88-6.88-6.88H30.99c-3.8,0-6.88,3.09-6.88,6.88Z"/>
  <path class="cls-1" d="M571.97,78.8c-.27,0-.54-.1-.74-.31l-37.4-37.4c-.3-.3-.39-.75-.23-1.15.16-.39.55-.65.97-.65h93.47c.58,0,1.05.47,1.05,1.05v37.38c0,.58-.47,1.05-1.05,1.05s-1.05-.47-1.05-1.05v-36.33h-89.88l35.61,35.61c.41.41.41,1.08,0,1.49-.21.21-.47.31-.74.31Z"/>
  <path class="cls-1" d="M503.82,74.3c-.27,0-.54-.1-.74-.31l-27.85-27.85h-28.33v20.44c0,.58-.47,1.05-1.05,1.05h-95.89c-.58,0-1.05-.47-1.05-1.05v-23.44h-86.61l28.96,28.96c.41.41.41,1.08,0,1.49s-1.08.41-1.49,0l-30.75-30.75c-.3-.3-.39-.75-.23-1.15.16-.39.55-.65.97-.65h90.2c.58,0,1.05.47,1.05,1.05v23.44h93.79v-20.44c0-.58.47-1.05,1.05-1.05h29.81c.28,0,.55.11.74.31l28.16,28.16c.41.41.41,1.08,0,1.49-.21.21-.47.31-.74.31Z"/>
  <path class="cls-1" d="M21.31,636.26c-2.4,0-10.48-.42-16.01-5.67-3.51-3.33-5.29-7.92-5.29-13.65v-23.91c0-.14.2-13.93,17.16-13.93,5.29,0,9.37,1.54,12.14,4.58,4.04,4.44,3.74,10.48,3.68,11.3v3.7s0,.08,0,.12c-.31,4.08-.09,10.53,1.36,12.1.16.17.24.17.29.17h366.73c.55-.03,6.12-.52,6.12-6.66v-12.89c.07-3.17,2.48-9.1,11.07-9.1,3.2,0,5.78.97,7.68,2.88,3.13,3.16,3.13,7.74,3.12,7.93v31.71c.04.66.19,5.04-2.7,8.19-1.9,2.06-4.63,3.11-8.1,3.11H21.99s-.29.01-.69.01ZM17.16,582.26c-13.75,0-14,10.34-14,10.79v23.9c0,4.82,1.45,8.64,4.3,11.35,5.46,5.19,14.37,4.81,14.46,4.8h396.62c2.56,0,4.5-.71,5.78-2.09,2.11-2.29,1.88-5.83,1.87-5.87,0-.04,0-.09,0-.13v-31.78s-.02-3.5-2.23-5.71c-1.28-1.28-3.1-1.93-5.42-1.93-7.47,0-7.89,5.38-7.91,5.99v12.85c0,7.42-6.02,9.66-9.2,9.81H34.62c-.99,0-1.89-.41-2.6-1.18-2.88-3.11-2.35-12.42-2.2-14.42v-3.7s0-.1,0-.15c0-.05.43-5.36-2.88-8.98-2.14-2.34-5.43-3.53-9.78-3.53Z"/>
  <path class="cls-1" d="M871.06,644.31c-.43,0-.7,0-.79-.01h-371.69c-20.27,0-21.27-20.12-21.27-20.32v-36.77c0-21.52,24.74-28.39,31.37-29.06,3.79-.38,6.87.31,8.67,1.95.98.89,1.53,2.05,1.53,3.25,0,4.65-6.5,6.05-8.63,6.51-3.48.75-4.58,3.61-4.8,4.32v12.17c23.3.24,295.65,2.94,311.71,0,14.96-2.73,20.38-19.01,20.98-20.95v-13.38c0-4.99,1.67-9.09,4.97-12.19,6.04-5.68,15.82-6.33,19.73-6.35V91.43c-3.42-3.26-14.95-14.69-14.95-20.47,0-6.49,5.13-10.03,5.35-10.17.06-.04.12-.08.19-.11l37.31-18.17c.23-.14.5-.21.79-.21h15.1c17.24,0,18.88,18.59,18.9,18.78,0,.04,0,.07,0,.11.03,4.66,3.49,466.43,3.49,524.59,0,18.08-5.31,32.39-15.78,42.52-15.7,15.19-37.67,16.01-42.18,16.01ZM510.65,561.21c-.5,0-1.06.03-1.66.09-5.66.57-28.53,6.96-28.53,25.92v36.71c.03.64.92,17.22,18.12,17.22h371.74c.28.02,24.52.59,40.74-15.13,9.82-9.51,14.8-23.05,14.8-40.24,0-57.95-3.43-516.87-3.49-524.51-.1-1.16-1.71-15.82-15.75-15.82h-14.72l-36.98,18c-.56.41-3.88,3.03-3.88,7.5,0,3.68,8.87,13.38,14.45,18.64.32.3.5.71.5,1.15v444.35c0,.43-.18.85-.5,1.15-.32.3-.75.45-1.18.43-.12,0-12.53-.68-19.06,5.47-2.63,2.48-3.97,5.8-3.97,9.88v13.61c0,.14-.02.28-.06.42-.22.82-5.71,20.17-23.52,23.41-16.99,3.09-301.76.15-313.87.03-.87,0-1.56-.71-1.56-1.58v-13.95c0-.12.01-.24.04-.36.05-.23,1.37-5.55,7.25-6.82,2.29-.5,6.14-1.6,6.14-3.43,0-.31-.16-.62-.49-.91-.35-.32-1.63-1.23-4.58-1.23Z"/>
  <path class="cls-1" d="M852.77,614.22h-373.89c-.87,0-1.58-.71-1.58-1.58s.71-1.58,1.58-1.58h373.89c14.97,0,26.27-4.11,33.6-12.23,10.84-12,9.25-28.91,9.23-29.08,0-.05,0-.11,0-.16V43.88c0-.87.71-1.58,1.58-1.58s1.58.71,1.58,1.58v525.64c.14,1.53,1.47,18.67-10.02,31.41-7.95,8.82-20.06,13.3-35.97,13.3Z"/>
  <text class="cls-2" transform="translate(242.46 76.6)"><tspan x="0" y="0">A01</tspan></text>
  <text class="cls-2" transform="translate(525.68 82.23)"><tspan x="0" y="0">A02</tspan></text>
  <text class="cls-2" transform="translate(320.74 112.16)"><tspan x="0" y="0">A03</tspan></text>
  <text class="cls-2" transform="translate(481.26 111.38)"><tspan x="0" y="0">A04</tspan></text>
  <text class="cls-2" transform="translate(658.78 106.79)"><tspan x="0" y="0">A05</tspan></text>
  <text class="cls-2" transform="translate(408.04 134.45)"><tspan x="0" y="0">A06</tspan></text>
  <text class="cls-2" transform="translate(589.61 140.86)"><tspan x="0" y="0">A07</tspan></text>
  <text class="cls-2" transform="translate(636.27 140.86)"><tspan x="0" y="0">A08</tspan></text>
  <text class="cls-2" transform="translate(141.16 181.82)"><tspan x="0" y="0">A09</tspan></text>
  <text class="cls-2" transform="translate(203.77 181.82)"><tspan x="0" y="0">A10</tspan></text>
  <text class="cls-2" transform="translate(174.92 219.78)"><tspan x="0" y="0">A13</tspan></text>
  <text class="cls-2" transform="translate(137.38 243.08)"><tspan x="0" y="0">A15</tspan></text>
  <text class="cls-2" transform="translate(152.19 299.08)"><tspan x="0" y="0">A18</tspan></text>
  <text class="cls-2" transform="translate(185.38 299.24)"><tspan x="0" y="0">A19</tspan></text>
  <text class="cls-2" transform="translate(191.12 334.14)"><tspan x="0" y="0">A25</tspan></text>
  <text class="cls-2" transform="translate(197.28 388.24)"><tspan x="0" y="0">A28</tspan></text>
  <text class="cls-2" transform="translate(218.48 436.63)"><tspan x="0" y="0">A35</tspan></text>
  <text class="cls-2" transform="translate(266.46 441.69)"><tspan x="0" y="0">A36</tspan></text>
  <text class="cls-2" transform="translate(119.16 361.55)"><tspan x="0" y="0">A27</tspan></text>
  <text class="cls-2" transform="translate(377.01 330.45)"><tspan x="0" y="0">A26</tspan></text>
  <text class="cls-2" transform="translate(320.44 250.12)"><tspan x="0" y="0">A16</tspan></text>
  <text class="cls-2" transform="translate(490.3 160.46)"><tspan x="0" y="0">A11</tspan></text>
  <text class="cls-2" transform="translate(509.7 207.7)"><tspan x="0" y="0">A14</tspan></text>
  <text class="cls-2" transform="translate(616.02 239.87)"><tspan x="0" y="0">A17</tspan></text>
  <text class="cls-2" transform="translate(536.28 268.92)"><tspan x="0" y="0">A20</tspan></text>
  <text class="cls-2" transform="translate(554.13 160.46)"><tspan x="0" y="0">A12</tspan></text>
  <text class="cls-2" transform="translate(617.49 285.67)"><tspan x="0" y="0">A22</tspan></text>
  <text class="cls-2" transform="translate(699.87 265.54)"><tspan x="0" y="0">A21</tspan></text>
  <text class="cls-2" transform="translate(699.87 307.26)"><tspan x="0" y="0">A23</tspan></text>
  <text class="cls-2" transform="translate(537.32 317.98)"><tspan x="0" y="0">A24</tspan></text>
  <text class="cls-2" transform="translate(606.48 369.97)"><tspan x="0" y="0">A30</tspan></text>
  <text class="cls-2" transform="translate(460.5 378.05)"><tspan x="0" y="0">A29</tspan></text>
  <text class="cls-2" transform="translate(447.61 394.39)"><tspan x="0" y="0">A31</tspan></text>
  <text class="cls-2" transform="translate(459.73 421.14)"><tspan x="0" y="0">A34</tspan></text>
  <text class="cls-2" transform="translate(633.89 390.14)"><tspan x="0" y="0">A32</tspan></text>
  <text class="cls-2" transform="translate(672.44 393.45)"><tspan x="0" y="0">A33</tspan></text>
</svg>