<?xml version="1.0" encoding="UTF-8"?>
<svg id="Capa_1" data-name="Capa 1" xmlns="http://www.w3.org/2000/svg" viewBox="0 0 958.38 767.09">
  <g>
    <path d="M167.64,518.84H18.62c-7.49,0-13.55-6.06-13.55-13.55V229.83c0-7.48,6.06-13.54,13.55-13.54h149.01c7.49,0,13.55,6.06,13.55,13.54v275.46c0,7.48-6.06,13.55-13.55,13.55ZM32.17,491.74h121.92v-248.36H32.17v248.36Z"/>
    <path d="M167.64,523.92H18.63c-10.27,0-18.63-8.36-18.63-18.63V229.84c0-10.27,8.36-18.62,18.63-18.62h149.01c10.27,0,18.62,8.36,18.62,18.62v275.45c0,10.27-8.36,18.63-18.62,18.63ZM18.63,221.37c-4.67,0-8.47,3.8-8.47,8.47v275.45c0,4.67,3.79,8.47,8.47,8.47h149.01c4.67,0,8.47-3.79,8.47-8.47V229.84c0-4.67-3.8-8.47-8.47-8.47H18.63ZM154.1,496.82H32.17c-2.8,0-5.08-2.27-5.08-5.08v-248.35c0-2.81,2.27-5.08,5.08-5.08h121.92c2.81,0,5.08,2.27,5.08,5.08v248.35c0,2.81-2.27,5.08-5.08,5.08ZM37.25,486.66h111.76v-238.2H37.25v238.2Z"/>
  </g>
  <g>
    <path d="M598.94,762c-2.28,0-4.57-.57-6.63-1.73l-431.31-242.14c-6.52-3.66-8.85-11.92-5.18-18.45,3.66-6.53,11.95-8.84,18.44-5.18l411.13,230.82V40.39L173.62,243.02c-6.68,3.29-14.85.54-18.14-6.18-3.29-6.71-.54-14.83,6.18-18.13L592.96,6.47c4.21-2.05,9.17-1.81,13.14.65,3.97,2.48,6.39,6.83,6.39,11.51v729.82c0,4.81-2.55,9.26-6.71,11.69-2.1,1.24-4.47,1.86-6.84,1.86Z"/>
    <path d="M598.95,767.09c-3.19,0-6.34-.82-9.11-2.38l-431.31-242.14c-8.95-5.03-12.15-16.42-7.13-25.38,2.44-4.34,6.43-7.47,11.23-8.81,4.78-1.3,9.82-.75,14.14,1.71l403.55,226.56V48.56L175.87,247.58c-4.46,2.17-9.51,2.5-14.25.9-4.71-1.6-8.51-4.95-10.71-9.4-4.52-9.21-.71-20.4,8.49-24.94L590.72,1.91c5.88-2.83,12.6-2.5,18.07.91,5.51,3.43,8.79,9.34,8.79,15.81v729.83c0,6.6-3.54,12.75-9.24,16.08-2.82,1.66-6.07,2.55-9.39,2.55ZM590.48,725.32c0,1.8-.95,3.48-2.51,4.38-1.56.91-3.49.94-5.06.05l-411.13-230.81c-1.28-.73-2.7-1.1-4.12-1.1-.77,0-1.54.11-2.29.32-2.19.62-4,2.04-5.11,4.01-2.29,4.07-.84,9.25,3.24,11.54l431.31,242.14c2.57,1.46,5.89,1.43,8.4-.08,2.61-1.51,4.21-4.31,4.21-7.3V18.63c0-2.89-1.54-5.64-4-7.18-2.5-1.55-5.57-1.7-8.23-.41L163.91,223.26c-4.19,2.05-5.92,7.14-3.86,11.34.99,2.02,2.71,3.53,4.85,4.27,2.16.74,4.47.56,6.47-.41L583.15,35.83"/>
  </g>
  <g>
    <path d="M704.52,565.88c-3.35,0-6.68-1.23-9.3-3.7-5.44-5.14-5.69-13.71-.54-19.15,44.9-47.54,69.62-109.75,69.62-175.17s-24.92-128.13-70.18-175.74c-5.16-5.42-4.93-14,.49-19.15,5.41-5.16,13.99-4.93,19.14.49,50.07,52.68,77.65,121.72,77.65,194.41s-27.36,141.18-77.04,193.76c-2.66,2.83-6.24,4.25-9.84,4.25Z"/>
    <path d="M704.52,570.96c-4.78,0-9.33-1.8-12.79-5.08-3.61-3.43-5.69-8.04-5.82-13.02-.14-4.97,1.65-9.71,5.08-13.32,44-46.58,68.24-107.54,68.24-171.67s-24.43-125.57-68.77-172.24c-3.44-3.61-5.25-8.34-5.12-13.31.12-4.97,2.18-9.6,5.79-13.03,3.59-3.41,8.59-4.9,13.27-5.12,4.99.13,9.62,2.18,13.05,5.78,50.97,53.63,79.05,123.92,79.05,197.93s-27.85,143.71-78.43,197.25c-3.48,3.71-8.42,5.84-13.53,5.84ZM703.94,174.33c-2.18,0-4.24.82-5.82,2.33-1.65,1.56-2.58,3.66-2.65,5.92-.05,2.25.77,4.41,2.33,6.03,46.15,48.58,71.58,112.24,71.58,179.26s-25.21,130.17-71.02,178.65c-1.56,1.64-2.38,3.78-2.31,6.04.06,2.26,1,4.37,2.66,5.93,3.28,3.1,8.88,2.95,11.95-.35,48.79-51.64,75.66-119.23,75.66-190.28s-27.08-139.18-76.24-190.91c-1.56-1.64-3.66-2.58-5.93-2.64h-.21Z"/>
  </g>
  <g>
    <path d="M817.01,690.43c-3.35,0-6.68-1.23-9.3-3.7-5.44-5.14-5.69-13.71-.54-19.15,76.76-81.27,119.03-187.64,119.03-299.5s-42.62-219.1-120-300.51c-5.16-5.42-4.94-14,.48-19.15,5.44-5.14,14.01-4.95,19.16.49,82.19,86.45,127.46,199.81,127.46,319.17s-44.9,231.78-126.45,318.1c-2.66,2.83-6.24,4.25-9.84,4.25Z"/>
    <path d="M817.01,695.52c-4.78,0-9.31-1.81-12.79-5.1-3.61-3.41-5.69-8.03-5.82-13.02-.14-4.96,1.66-9.7,5.08-13.31,75.87-80.34,117.65-185.46,117.65-296.01s-42.12-216.55-118.61-297c-7.08-7.43-6.79-19.25.65-26.34,7.47-7.09,19.28-6.78,26.35.67,83.09,87.39,128.86,201.99,128.86,322.67s-45.41,234.34-127.84,321.6c-3.49,3.71-8.43,5.84-13.53,5.84ZM816.02,49.77c-2.18,0-4.25.83-5.85,2.34-3.38,3.22-3.51,8.59-.29,11.96,78.29,82.36,121.41,190.33,121.41,304.01s-42.77,220.76-120.42,303c-1.55,1.64-2.37,3.78-2.32,6.04.06,2.26,1,4.35,2.66,5.91,3.29,3.14,8.87,2.98,11.96-.34,80.65-85.37,125.06-197.09,125.06-314.61s-44.77-230.16-126.06-315.67c-1.56-1.65-3.66-2.58-5.91-2.65h-.22Z"/>
  </g>
</svg>